<svg xmlns="http://www.w3.org/2000/svg" width="20" height="20" viewBox="0 0 20 20">
    <path fill="#FFF" d="M1 10c0-1.632.402-3.138 1.206-4.518.804-1.38 1.896-2.472 3.276-3.276C6.862 1.402 8.368 1 10 1c1.632 0 3.138.402 4.518 1.206 1.38.804 2.472 1.896 3.276 3.276C18.598 6.862 19 8.368 19 10c0 1.632-.402 3.138-1.206 4.518-.804 1.38-1.896 2.472-3.276 3.276C13.138 18.598 11.632 19 10 19c-1.632 0-3.138-.402-4.518-1.206-1.38-.804-2.472-1.896-3.276-3.276C1.402 13.138 1 11.632 1 10zm1.494 0c0 1.872.63 3.522 1.89 4.95.576-1.128 1.488-2.202 2.736-3.222 1.248-1.02 2.466-1.662 3.654-1.926-.18-.42-.354-.798-.522-1.134-2.064.66-4.296.99-6.696.99-.468 0-.816-.006-1.044-.018 0 .048-.003.108-.009.18-.006.072-.009.132-.009.18zm.234-1.854c.264.024.654.036 1.17.036 2.004 0 3.906-.27 5.706-.81-.912-1.62-1.914-2.97-3.006-4.05-.948.48-1.761 1.146-2.439 1.998-.678.852-1.155 1.794-1.431 2.826zm2.682 7.776c1.356 1.056 2.886 1.584 4.59 1.584.888 0 1.77-.168 2.646-.504-.24-2.052-.708-4.038-1.404-5.958-1.104.24-2.217.846-3.339 1.818-1.122.972-1.953 1.992-2.493 3.06zM8.164 2.746C9.22 3.838 10.198 5.2 11.098 6.832c1.632-.684 2.862-1.554 3.69-2.61C13.396 3.07 11.8 2.494 10 2.494c-.612 0-1.224.084-1.836.252zm3.582 5.364c.18.384.384.87.612 1.458.888-.084 1.854-.126 2.898-.126.744 0 1.482.018 2.214.054-.096-1.632-.684-3.084-1.764-4.356-.78 1.164-2.1 2.154-3.96 2.97zm1.062 2.718c.612 1.776 1.026 3.6 1.242 5.472.948-.612 1.722-1.398 2.322-2.358.6-.96.96-1.998 1.08-3.114-.876-.06-1.674-.09-2.394-.09-.66 0-1.41.03-2.25.09z"/>
</svg>
