<svg xmlns="http://www.w3.org/2000/svg" width="20" height="20" viewBox="0 0 20 20">
    <path fill="#FFF" fill-rule="nonzero" d="M4.6 15.4V7.858h2.304V15.4H4.6m2.376-9.63c.018.648-.468 1.17-1.242 1.17-.72 0-1.188-.522-1.188-1.17 0-.666.486-1.17 1.224-1.17s1.206.504 1.206 1.17m6.048 9.63v-4.176c0-.972-.324-1.638-1.17-1.638-.63 0-1.008.45-1.188.882a1.99 1.99 0 0 0-.072.594V15.4H8.29v-5.13c0-.936-.036-1.728-.054-2.412h1.998l.108 1.062h.036c.306-.504 1.062-1.224 2.304-1.224 1.512 0 2.664 1.026 2.664 3.258V15.4h-2.322M19 2.584C19 1.72 18.28 1 17.416 1H2.584C1.72 1 1 1.72 1 2.584v14.832C1 18.28 1.72 19 2.584 19h14.832C18.28 19 19 18.28 19 17.416V2.584"/>
</svg>
