<svg xmlns="http://www.w3.org/2000/svg" width="20" height="20" viewBox="0 0 20 20">
    <path fill="#FFF" fill-rule="evenodd" d="M10.986 1c.998.003 1.5.009 1.943.023l.187.006.595.025c.958.044 1.612.196 2.184.419.592.23 1.094.537 1.594 1.038.5.5.809 1.002 1.039 1.594.222.572.374 1.226.418 2.184l.025.595.006.187c.014.443.02.945.022 1.943l.001.713v1.259c-.003.998-.009 1.5-.023 1.943l-.006.187-.025.595c-.044.958-.196 1.612-.418 2.184-.23.592-.538 1.094-1.039 1.594-.5.5-1.002.809-1.594 1.039-.572.222-1.226.374-2.184.418l-.595.025-.187.006c-.443.014-.945.02-1.943.022l-.713.001H9.014c-.998-.003-1.5-.009-1.943-.023l-.187-.006-.595-.025c-.958-.044-1.612-.196-2.184-.418-.592-.23-1.094-.538-1.594-1.039-.5-.5-.809-1.002-1.038-1.594-.223-.572-.375-1.226-.419-2.184l-.025-.595-.006-.187c-.014-.443-.02-.945-.022-1.943V9.014c.002-.998.008-1.5.022-1.943l.006-.187.025-.595c.044-.958.196-1.612.419-2.184.23-.592.537-1.094 1.038-1.594.5-.5 1.002-.809 1.594-1.038.572-.223 1.226-.375 2.184-.419l.595-.025.187-.006c.443-.014.945-.02 1.943-.022zm-.448 1.622H8.79c-1.334.005-1.668.017-2.427.052-.877.04-1.354.187-1.67.31-.421.163-.72.358-1.036.673-.315.315-.51.615-.673 1.035-.123.317-.27.794-.31 1.671-.035.76-.047 1.093-.051 2.427v.432l-.001.24v1.748c.005 1.334.017 1.668.052 2.427.04.877.187 1.354.31 1.67.163.421.358.72.673 1.036.315.315.615.51 1.035.673.317.123.794.27 1.671.31.76.035 1.093.047 2.427.051h.432l.24.001h1.748c1.334-.005 1.668-.017 2.427-.052.877-.04 1.354-.187 1.67-.31.421-.163.72-.358 1.036-.673.315-.315.51-.615.673-1.035.123-.317.27-.794.31-1.671.035-.76.047-1.093.051-2.427v-.432l.001-.24V9.463 8.79c-.005-1.334-.017-1.668-.052-2.427-.04-.877-.187-1.354-.31-1.67-.163-.421-.358-.72-.673-1.036-.315-.315-.615-.51-1.035-.673-.317-.123-.794-.27-1.671-.31-.76-.035-1.093-.047-2.427-.051h-.432l-.24-.001zM10 5.378c2.552 0 4.622 2.07 4.622 4.622s-2.07 4.622-4.622 4.622S5.378 12.552 5.378 10 7.448 5.378 10 5.378zM10 7c-1.657 0-3 1.343-3 3s1.343 3 3 3 3-1.343 3-3-1.343-3-3-3zm4.804-2.884c.597 0 1.08.483 1.08 1.08 0 .596-.483 1.08-1.08 1.08-.596 0-1.08-.484-1.08-1.08 0-.597.484-1.08 1.08-1.08z"/>
</svg>
