<svg xmlns="http://www.w3.org/2000/svg" width="20" height="20" viewBox="0 0 20 20">
    <path fill="#FFF" fill-rule="evenodd" d="M19 4.776c-.661.3-1.373.505-2.12.596.762-.468 1.348-1.21 1.623-2.095-.714.434-1.503.749-2.346.918C15.485 3.459 14.525 3 13.462 3 11.424 3 9.77 4.696 9.77 6.787c0 .296.032.585.095.862-3.069-.158-5.79-1.664-7.612-3.958-.318.561-.5 1.213-.5 1.906 0 1.313.652 2.472 1.643 3.152-.604-.019-1.175-.191-1.673-.473v.047c0 1.835 1.273 3.366 2.963 3.713-.31.089-.636.133-.973.133-.238 0-.47-.023-.695-.067.47 1.504 1.833 2.599 3.45 2.628-1.264 1.016-2.857 1.622-4.587 1.622-.298 0-.593-.017-.881-.052C2.634 17.373 4.576 18 6.66 18c6.794 0 10.508-5.77 10.508-10.774 0-.164-.003-.329-.01-.49.722-.534 1.349-1.2 1.842-1.96"/>
</svg>
