<svg xmlns="http://www.w3.org/2000/svg" width="20" height="20" viewBox="0 0 20 20">
    <path fill="#FFF" d="M5.923 4c.6 0 1.146.05 1.64.151.494.101.917.267 1.27.496.352.23.625.535.819.916.194.381.29.852.29 1.412 0 .605-.143 1.11-.431 1.512-.288.404-.714.734-1.278.992.775.213 1.354.586 1.736 1.118.382.532.573 1.174.573 1.924 0 .605-.123 1.129-.37 1.572-.247.442-.579.804-.996 1.083-.417.28-.893.488-1.428.623C7.21 15.933 6.656 16 6.1 16H0V4h5.923zm-.352 4.857c.493 0 .899-.112 1.216-.336.318-.224.476-.588.476-1.092 0-.28-.053-.51-.158-.69-.106-.179-.247-.319-.424-.42-.176-.1-.379-.17-.608-.21-.235-.04-.474-.06-.714-.058H2.768v2.806H5.57zm.158 5.093c.27 0 .53-.026.776-.076.247-.05.464-.135.652-.252.188-.118.338-.278.45-.48.112-.2.167-.459.167-.772 0-.616-.182-1.056-.546-1.32-.365-.263-.846-.395-1.446-.395H2.768v3.294h2.961zm8.297-.252c.376.347.916.52 1.621.52.506 0 .94-.12 1.305-.36.364-.241.588-.496.67-.766h2.203c-.352 1.042-.893 1.788-1.621 2.236-.73.448-1.61.672-2.645.672-.717 0-1.363-.11-1.94-.328-.575-.218-1.063-.53-1.462-.933-.4-.403-.708-.884-.926-1.445-.217-.56-.326-1.176-.326-1.849 0-.65.111-1.254.335-1.814.223-.56.54-1.045.952-1.454.411-.41.902-.731 1.472-.967.57-.235 1.202-.353 1.895-.353.776 0 1.452.143 2.028.429.575.286 1.049.67 1.419 1.151.37.482.637 1.031.802 1.647.165.617.223 1.26.176 1.933H13.41c.035.773.24 1.333.617 1.68zm2.829-4.572c-.3-.313-.755-.47-1.366-.47-.4 0-.732.064-.996.193-.265.129-.476.288-.635.479-.158.19-.27.392-.335.605-.065.213-.103.403-.114.571h4.072c-.118-.605-.326-1.064-.626-1.378zM12.981 4.61h5.088v1.345h-5.088V4.61z"/>
</svg>
