<svg xmlns="http://www.w3.org/2000/svg" width="125" height="22" viewBox="0 0 125 22">
    <g fill="none" fill-rule="evenodd">
        <g fill="#FFF" fill-rule="nonzero">
            <g>
                <g>
                    <g>
                        <g>
                            <g>
                                <path d="M30.154 12.85c-.784-.825-1.733-1.367-2.84-1.642 1.086-.277 2.027-.825 2.817-1.655 1.178-1.236 1.766-2.788 1.778-4.646h-3.037c-.006 1.065-.307 1.936-.906 2.62-.605.688-1.398 1.03-2.382 1.03-.967 0-1.763-.345-2.383-1.03-.616-.68-.923-1.555-.929-2.62h-3.045c0 1.896.587 3.456 1.76 4.683.787.822 1.734 1.36 2.837 1.63-1.063.28-1.998.825-2.794 1.653-1.201 1.25-1.803 2.822-1.803 4.718h3.042c0-.008-.003-.014-.003-.023 0-1.074.304-1.96.91-2.654.604-.695 1.397-1.045 2.382-1.045.966 0 1.763.353 2.382 1.056.62.704.932 1.587.932 2.643 0 .009-.003.015-.003.023h3.037c0-.017.003-.032.003-.046.003-1.899-.582-3.462-1.755-4.695zM3.196 16.572v5.167H.02V4.907h3.01v1.21c.95-.95 2.244-1.422 3.888-1.422 1.914 0 3.45.605 4.612 1.815 1.16 1.21 1.742 2.78 1.742 4.707 0 1.882-.59 3.45-1.765 4.707-1.179 1.256-2.756 1.884-4.73 1.884-1.425-.002-2.617-.414-3.581-1.236zm.854-8.004c-.631.704-.95 1.601-.95 2.693 0 1.09.324 1.982.973 2.68.648.695 1.494 1.042 2.536 1.042 1.06 0 1.904-.347 2.535-1.042.632-.695.95-1.59.95-2.68 0-1.092-.324-1.99-.973-2.693-.648-.703-1.493-1.053-2.535-1.053-1.06 0-1.905.353-2.536 1.053zM16.118 4.102c-.521 0-.97-.183-1.34-.544-.37-.365-.556-.805-.556-1.33 0-.537.185-.992.556-1.362.37-.371.819-.556 1.34-.556.538 0 .987.185 1.352.556.364.37.544.825.544 1.363 0 .521-.182.964-.544 1.329-.365.361-.817.544-1.352.544zm1.59.805V17.59h-3.18V4.907h3.18zM44.622 12.28h-9.057c.078.836.4 1.496.96 1.98.562.483 1.292.723 2.195.723 1.329 0 2.394-.63 3.202-1.896l2.347 1.421c-.443.933-1.126 1.717-2.05 2.348-.923.631-2.09.95-3.496.95-1.945 0-3.514-.588-4.707-1.766s-1.789-2.762-1.789-4.753c0-1.914.582-3.489 1.743-4.73 1.16-1.242 2.66-1.862 4.492-1.862 1.896 0 3.407.57 4.528 1.708 1.123 1.138 1.684 2.663 1.684 4.577-.005.503-.02.938-.052 1.3zm-6.189-4.907c-.79 0-1.435.234-1.93.7-.498.466-.788 1.071-.866 1.815h5.737c-.078-.744-.379-1.346-.9-1.815-.524-.469-1.201-.7-2.04-.7zM49.031.261L49.031 17.591 45.853 17.591 45.853.261zM60.532 9.602v7.99h-3.179v-7.99c0-.617-.147-1.106-.44-1.47-.292-.365-.706-.545-1.244-.545-.553 0-.982.182-1.28.544-.3.365-.451.869-.451 1.517v7.943h-3.179V4.907h3.179v.95c.599-.728 1.508-1.092 2.726-1.092 1.361 0 2.363.457 3.011 1.375.79-.918 1.85-1.375 3.178-1.375 1.47 0 2.548.41 3.237 1.233.689.822 1.03 1.896 1.03 3.225v8.368h-3.175v-7.99c0-.63-.145-1.125-.437-1.481-.293-.356-.715-.533-1.268-.533s-.976.185-1.268.556c-.295.37-.44.857-.44 1.459zM78.621 17.591v-1.256c-.301.38-.779.72-1.436 1.019-.657.301-1.441.452-2.359.452-1.928 0-3.494-.605-4.695-1.815-1.202-1.21-1.8-2.794-1.8-4.754 0-1.896.598-3.462 1.8-4.695 1.201-1.233 2.764-1.85 4.695-1.85.773 0 1.497.128 2.168.38.672.251 1.199.593 1.578 1.019V4.904h3.01v12.684h-2.96v.003zm-7.112-6.354c0 1.092.324 1.99.972 2.692.649.704 1.494 1.054 2.536 1.054 1.06 0 1.905-.35 2.536-1.054.63-.703.95-1.6.95-2.692 0-1.074-.328-1.962-.985-2.666-.657-.703-1.49-1.053-2.5-1.053-1.06 0-1.909.353-2.548 1.053-.64.704-.961 1.592-.961 2.666zM95.657 7.587v-2.68H93.71V2.915h-3.178v1.992h-3.5V2.915h-3.172v1.992h-1.187v2.68h1.187v6.806c0 2.214 1.128 3.32 3.39 3.32.315 0 .613-.012.888-.035.275-.023.486-.052.628-.084l.214-.046v-2.704h-.735c-.443 0-.755-.107-.938-.321-.182-.214-.272-.556-.272-1.03V7.586h3.5v6.806c0 2.214 1.129 3.32 3.39 3.32.315 0 .613-.012.888-.035.275-.023.487-.052.628-.084l.215-.046v-2.704h-.736c-.443 0-.755-.107-.938-.321-.182-.214-.272-.556-.272-1.03V7.586h1.946zM108.556 12.28h-9.058c.078.836.4 1.496.96 1.98.563.483 1.292.723 2.195.723 1.329 0 2.394-.63 3.202-1.896l2.347 1.421c-.443.933-1.126 1.717-2.05 2.348-.923.631-2.09.95-3.496.95-1.945 0-3.514-.588-4.707-1.766-1.192-1.178-1.789-2.762-1.789-4.753 0-1.914.582-3.489 1.743-4.73 1.16-1.242 2.66-1.862 4.493-1.862 1.896 0 3.407.57 4.527 1.708 1.123 1.138 1.685 2.663 1.685 4.577-.006.503-.02.938-.052 1.3zm-6.19-4.907c-.79 0-1.435.234-1.933.7-.498.466-.787 1.071-.866 1.815h5.738c-.078-.744-.38-1.346-.9-1.815-.522-.469-1.199-.7-2.038-.7zM115.43 4.86v3.32h-.804c-.602 0-1.028.14-1.28.414-.252.278-.379.701-.379 1.268v7.73h-3.178V4.906h3.178v1.019c.504-.71 1.326-1.066 2.464-1.066zM119.153 8.273c0 .585.37.981 1.115 1.187.173.046.451.119.83.214.38.096.68.174.9.238 1.06.315 1.83.77 2.314 1.363.483.593.723 1.442.723 2.547 0 1.234-.443 2.197-1.328 2.892-.886.695-1.983 1.042-3.295 1.042-1.626 0-2.802-.402-3.52-1.21-.72-.804-1.053-1.826-1.007-3.06h3.034c0 1.138.512 1.708 1.54 1.708.425 0 .781-.098 1.068-.295.284-.197.425-.477.425-.842s-.098-.64-.295-.83c-.197-.19-.518-.348-.96-.476-1.029-.283-1.668-.474-1.92-.57-1.754-.631-2.631-1.882-2.631-3.746 0-1.074.408-1.96 1.221-2.654.814-.695 1.853-1.042 3.118-1.042 1.36 0 2.411.338 3.152 1.019.744.68 1.123 1.676 1.138 2.987h-2.915c-.032-1.028-.513-1.54-1.448-1.54-.379 0-.683.098-.911.295-.232.2-.348.458-.348.773z" transform="translate(-150 -4886) translate(0 4670) translate(0 48) translate(0 143) translate(150) translate(0 25)"/>
                            </g>
                        </g>
                    </g>
                </g>
            </g>
        </g>
    </g>
</svg>
